<?xml version="1.0" standalone="no"?>
<!DOCTYPE svg PUBLIC "-//W3C//DTD SVG 20010904//EN"
 "http://www.w3.org/TR/2001/REC-SVG-20010904/DTD/svg10.dtd">
<svg version="1.0" xmlns="http://www.w3.org/2000/svg"
 width="100.000000pt" height="100.000000pt" viewBox="0 0 100.000000 100.000000"
 preserveAspectRatio="xMidYMid meet">

<g transform="translate(0.000000,100.000000) scale(0.100000,-0.100000)"
fill="#000000" stroke="none">
<path d="M326 661 c-93 -87 -168 -161 -167 -164 3 -16 23 0 141 111 69 65 144
135 166 155 l42 37 118 -113 c192 -183 224 -211 224 -195 0 8 -48 59 -106 114
-59 54 -134 125 -168 156 -33 31 -65 57 -71 57 -5 0 -86 -71 -179 -158z"/>
<path d="M247 470 c-4 -9 -6 -81 -5 -160 l3 -145 247 -2 c136 -2 254 0 263 3
13 5 15 30 15 154 0 199 -19 210 -22 13 l-3 -148 -240 0 -240 0 -5 150 c-3 83
-9 143 -13 135z"/>
</g>
</svg>
